# xmcd
#
# Track frame offsets:
#	150
#	14103
#	28704
#	43649
#	61126
#	76818
#	92482
#	112222
#	124427
#	140264
#	158323
#	173184
#	189976
#	202331
#	220465
#
# Disc length: 3218 seconds
#
# Revision: 1
# Processed by: cddbd v1.5.1PL2 Copyright (c) Steve Scherf et al.
# Submitted via: audiograbber 1.83.01
#
DISCID=d30c900f
DTITLE=Vairous - CB-60108
DYEAR=1900
DGENRE=Karaoke
TTITLE0=Jackson, Alan - Love's Got A Hold On You
TTITLE1=Chesnutt, Mark - Bubba Shot The Jukebox
TTITLE2=Bogguss, Suzy - Drive South
TTITLE3=Van Shelton, Ricky - Backroads
TTITLE4=Confederate Railroad - Queen Of Memphis
TTITLE5=Loveless, Patty - Jealous Bone
TTITLE6=Ketchum, Hal - Past The Point
TTITLE7=Strait, George - Overnight Male
TTITLE8=Carpenter, Mary Chapin - Not Too Much Too Ask
TTITLE9=Black, Clint - We Tell Ourselves
TTITLE10=Stone, Doug - More Love
TTITLE11=Dunn, Holly - Golden Years
TTITLE12=Raye, Collin - I Want You Bad (That Ain't Good)
TTITLE13=Cyrus, Billy Ray - Could've Been Me
TTITLE14=Judd, Wynonna - She Is His Only Need
EXTD=
EXTT0=
EXTT1=
EXTT2=
EXTT3=
EXTT4=
EXTT5=
EXTT6=
EXTT7=
EXTT8=
EXTT9=
EXTT10=
EXTT11=
EXTT12=
EXTT13=
EXTT14=
PLAYORDER=
